<?xml version="1.0" encoding="UTF-8"?>
<svg id="Layer_1" xmlns="http://www.w3.org/2000/svg" version="1.1" viewBox="0 0 2026.65 538.58">
  <!-- Generator: Adobe Illustrator 29.5.1, SVG Export Plug-In . SVG Version: 2.1.0 Build 141)  -->
  <defs>
    <style>
      .st0 {
        fill: #331d11;
      }

      .st1 {
        fill: #e05537;
      }

      .st2 {
        fill: #9c1e21;
      }

      .st3 {
        fill: #c6ab74;
      }
    </style>
  </defs>
  <g>
    <g>
      <polygon class="st0" points="89.88 44.23 1.42 44.23 45.65 0 89.88 44.23"/>
      <polygon class="st0" points="161.56 0 73.1 0 117.33 44.23 161.56 0"/>
      <polygon class="st0" points="233.24 44.23 144.78 44.23 189.01 0 233.24 44.23"/>
      <polygon class="st0" points="304.92 0 216.46 0 260.69 44.23 304.92 0"/>
      <polygon class="st0" points="376.6 44.23 288.14 44.23 332.37 0 376.6 44.23"/>
      <polygon class="st0" points="448.28 0 359.82 0 404.05 44.23 448.28 0"/>
      <polygon class="st0" points="519.96 44.23 431.5 44.23 475.73 0 519.96 44.23"/>
      <polygon class="st0" points="591.64 0 503.18 0 547.41 44.23 591.64 0"/>
      <polygon class="st0" points="663.32 44.23 574.86 44.23 619.09 0 663.32 44.23"/>
      <polygon class="st0" points="735 0 646.54 0 690.77 44.23 735 0"/>
      <polygon class="st0" points="806.68 44.23 718.21 44.23 762.45 0 806.68 44.23"/>
      <polygon class="st0" points="878.36 0 789.89 0 834.13 44.23 878.36 0"/>
      <polygon class="st0" points="950.04 44.23 861.57 44.23 905.8 0 950.04 44.23"/>
      <polygon class="st0" points="1021.72 0 933.25 0 977.48 44.23 1021.72 0"/>
      <polygon class="st0" points="1093.39 44.23 1004.93 44.23 1049.16 0 1093.39 44.23"/>
      <polygon class="st0" points="1165.07 0 1076.61 0 1120.84 44.23 1165.07 0"/>
      <polygon class="st0" points="1236.75 44.23 1148.29 44.23 1192.52 0 1236.75 44.23"/>
      <polygon class="st0" points="1308.43 0 1219.97 0 1264.2 44.23 1308.43 0"/>
      <polygon class="st0" points="1380.11 44.23 1291.65 44.23 1335.88 0 1380.11 44.23"/>
      <polygon class="st0" points="1451.79 0 1363.33 0 1407.56 44.23 1451.79 0"/>
      <polygon class="st0" points="1523.47 44.23 1435.01 44.23 1479.24 0 1523.47 44.23"/>
      <polygon class="st0" points="1595.15 0 1506.69 0 1550.92 44.23 1595.15 0"/>
      <polygon class="st0" points="1666.83 44.23 1578.37 44.23 1622.6 0 1666.83 44.23"/>
      <polygon class="st0" points="1738.51 0 1650.05 0 1694.28 44.23 1738.51 0"/>
      <polygon class="st0" points="1810.19 44.23 1721.73 44.23 1765.96 0 1810.19 44.23"/>
      <polygon class="st0" points="1881.87 0 1793.41 0 1837.64 44.23 1881.87 0"/>
      <polygon class="st0" points="1953.55 44.23 1865.08 44.23 1909.32 0 1953.55 44.23"/>
      <polygon class="st0" points="2025.23 0 1936.76 0 1981 44.23 2025.23 0"/>
    </g>
    <g>
      <polygon class="st0" points="89.88 494.35 1.42 494.35 45.65 538.58 89.88 494.35"/>
      <polygon class="st0" points="161.56 538.58 73.1 538.58 117.33 494.35 161.56 538.58"/>
      <polygon class="st0" points="233.24 494.35 144.78 494.35 189.01 538.58 233.24 494.35"/>
      <polygon class="st0" points="304.92 538.58 216.46 538.58 260.69 494.35 304.92 538.58"/>
      <polygon class="st0" points="376.6 494.35 288.14 494.35 332.37 538.58 376.6 494.35"/>
      <polygon class="st0" points="448.28 538.58 359.82 538.58 404.05 494.35 448.28 538.58"/>
      <polygon class="st0" points="519.96 494.35 431.5 494.35 475.73 538.58 519.96 494.35"/>
      <polygon class="st0" points="591.64 538.58 503.18 538.58 547.41 494.35 591.64 538.58"/>
      <polygon class="st0" points="663.32 494.35 574.86 494.35 619.09 538.58 663.32 494.35"/>
      <polygon class="st0" points="735 538.58 646.54 538.58 690.77 494.35 735 538.58"/>
      <polygon class="st0" points="806.68 494.35 718.21 494.35 762.45 538.58 806.68 494.35"/>
      <polygon class="st0" points="878.36 538.58 789.89 538.58 834.13 494.35 878.36 538.58"/>
      <polygon class="st0" points="950.04 494.35 861.57 494.35 905.8 538.58 950.04 494.35"/>
      <polygon class="st0" points="1021.72 538.58 933.25 538.58 977.48 494.35 1021.72 538.58"/>
      <polygon class="st0" points="1093.39 494.35 1004.93 494.35 1049.16 538.58 1093.39 494.35"/>
      <polygon class="st0" points="1165.07 538.58 1076.61 538.58 1120.84 494.35 1165.07 538.58"/>
      <polygon class="st0" points="1236.75 494.35 1148.29 494.35 1192.52 538.58 1236.75 494.35"/>
      <polygon class="st0" points="1308.43 538.58 1219.97 538.58 1264.2 494.35 1308.43 538.58"/>
      <polygon class="st0" points="1380.11 494.35 1291.65 494.35 1335.88 538.58 1380.11 494.35"/>
      <polygon class="st0" points="1451.79 538.58 1363.33 538.58 1407.56 494.35 1451.79 538.58"/>
      <polygon class="st0" points="1523.47 494.35 1435.01 494.35 1479.24 538.58 1523.47 494.35"/>
      <polygon class="st0" points="1595.15 538.58 1506.69 538.58 1550.92 494.35 1595.15 538.58"/>
      <polygon class="st0" points="1666.83 494.35 1578.37 494.35 1622.6 538.58 1666.83 494.35"/>
      <polygon class="st0" points="1738.51 538.58 1650.05 538.58 1694.28 494.35 1738.51 538.58"/>
      <polygon class="st0" points="1810.19 494.35 1721.73 494.35 1765.96 538.58 1810.19 494.35"/>
      <polygon class="st0" points="1881.87 538.58 1793.41 538.58 1837.64 494.35 1881.87 538.58"/>
      <polygon class="st0" points="1953.55 494.35 1865.08 494.35 1909.32 538.58 1953.55 494.35"/>
      <polygon class="st0" points="2025.23 538.58 1936.76 538.58 1981 494.35 2025.23 538.58"/>
    </g>
    <g>
      <g>
        <path class="st3" d="M1912.3,156.37l-102.88,102.88-148.05-148.05-147.41,147.43-102.26-102.26-102.88,102.9-148.07-148.07-147.41,147.43-102.26-102.26-102.88,102.88-148.05-148.05-147.41,147.43-102.26-102.26-102.88,102.9L159.52,111.2,1.43,269.29l158.09,158.09,148.07-148.05,102.88,102.88,102.26-102.24,147.41,147.41,148.05-148.05,102.88,102.88,102.26-102.24,147.41,147.41,148.07-148.05,102.88,102.88,102.26-102.24,147.41,147.41,148.05-148.05,102.88,102.88,112.92-112.92-112.92-112.92ZM159.52,398.75L30.06,269.29l129.46-129.49,129.49,129.49-129.49,129.46ZM410.47,353.59l-84.32-84.29,84.32-84.32,84.29,84.32-84.29,84.29ZM660.14,398.75l-129.49-129.46,129.49-129.49,129.46,129.49-129.46,129.46ZM911.07,353.59l-84.29-84.29,84.29-84.32,84.32,84.32-84.32,84.29ZM1160.74,398.75l-129.46-129.46,129.46-129.49,129.49,129.49-129.49,129.46ZM1411.7,353.59l-84.32-84.29,84.32-84.32,84.29,84.32-84.29,84.29ZM1661.37,398.75l-129.49-129.46,129.49-129.49,129.46,129.49-129.46,129.46ZM1828,269.29l84.29-84.32,84.32,84.32-84.32,84.29-84.29-84.29Z"/>
        <path class="st2" d="M159.52,168.43l-100.86,100.86,100.86,100.86,100.86-100.86-100.86-100.86ZM87.29,269.29l72.23-72.23,72.25,72.23-72.25,72.23-72.23-72.23Z"/>
        <path class="st2" d="M660.43,168.43l-100.83,100.86,100.86,100.86,100.83-100.86-100.86-100.86ZM588.2,269.29l72.23-72.23,72.25,72.23-72.23,72.23-72.25-72.23Z"/>
        <path class="st2" d="M1161.36,168.43l-100.86,100.86,100.86,100.86,100.86-100.86-100.86-100.86ZM1089.13,269.29l72.23-72.23,72.23,72.23-72.23,72.23-72.23-72.23Z"/>
        <path class="st2" d="M1662.27,168.43l-100.86,100.86,100.86,100.86,100.86-100.86-100.86-100.86ZM1590.04,269.29l72.23-72.23,72.23,72.23-72.23,72.23-72.23-72.23Z"/>
      </g>
      <path class="st1" d="M159.51,225.69l-43.6,43.6,43.6,43.6,43.62-43.6-43.62-43.6ZM144.52,269.29l14.99-14.99,14.99,14.99-14.99,14.99-14.99-14.99Z"/>
      <path class="st1" d="M660.42,225.69l-43.6,43.6,43.6,43.6,43.62-43.6-43.62-43.6ZM645.43,269.29l14.99-14.99,14.99,14.99-14.99,14.99-14.99-14.99Z"/>
      <path class="st1" d="M1161.33,225.69l-43.6,43.6,43.6,43.6,43.62-43.6-43.62-43.6ZM1146.34,269.29l14.99-14.99,14.99,14.99-14.99,14.99-14.99-14.99Z"/>
      <path class="st1" d="M1662.24,225.69l-43.6,43.6,43.6,43.6,43.62-43.6-43.62-43.6ZM1647.25,269.29l14.99-14.99,14.99,14.99-14.99,14.99-14.99-14.99Z"/>
      <path class="st1" d="M410.47,213.6l-55.69,55.69,55.69,55.66,55.69-55.66-55.69-55.69ZM383.41,269.29l27.06-27.08,27.06,27.08-27.06,27.06-27.06-27.06Z"/>
      <path class="st1" d="M911.38,213.6l-55.69,55.69,55.69,55.66,55.69-55.66-55.69-55.69ZM884.32,269.29l27.06-27.08,27.06,27.08-27.06,27.06-27.06-27.06Z"/>
      <path class="st1" d="M1412.3,213.6l-55.69,55.69,55.69,55.66,55.69-55.66-55.69-55.69ZM1385.24,269.29l27.06-27.08,27.06,27.08-27.06,27.06-27.06-27.06Z"/>
      <path class="st1" d="M1913.21,213.6l-55.69,55.69,55.69,55.66,55.69-55.66-55.69-55.69ZM1886.15,269.29l27.06-27.08,27.06,27.08-27.06,27.06-27.06-27.06Z"/>
    </g>
  </g>
  <g>
    <g>
      <polygon class="st2" points="89.88 1273.02 1.42 1273.02 45.65 1228.78 89.88 1273.02"/>
      <polygon class="st2" points="161.56 1228.78 73.1 1228.78 117.33 1273.02 161.56 1228.78"/>
      <polygon class="st2" points="233.24 1273.02 144.78 1273.02 189.01 1228.78 233.24 1273.02"/>
      <polygon class="st2" points="304.92 1228.78 216.46 1228.78 260.69 1273.02 304.92 1228.78"/>
      <polygon class="st2" points="376.6 1273.02 288.14 1273.02 332.37 1228.78 376.6 1273.02"/>
      <polygon class="st2" points="448.28 1228.78 359.82 1228.78 404.05 1273.02 448.28 1228.78"/>
      <polygon class="st2" points="519.96 1273.02 431.5 1273.02 475.73 1228.78 519.96 1273.02"/>
      <polygon class="st2" points="591.64 1228.78 503.18 1228.78 547.41 1273.02 591.64 1228.78"/>
      <polygon class="st2" points="663.32 1273.02 574.86 1273.02 619.09 1228.78 663.32 1273.02"/>
      <polygon class="st2" points="735 1228.78 646.54 1228.78 690.77 1273.02 735 1228.78"/>
      <polygon class="st2" points="806.68 1273.02 718.21 1273.02 762.45 1228.78 806.68 1273.02"/>
      <polygon class="st2" points="878.36 1228.78 789.89 1228.78 834.13 1273.02 878.36 1228.78"/>
      <polygon class="st2" points="950.04 1273.02 861.57 1273.02 905.8 1228.78 950.04 1273.02"/>
      <polygon class="st2" points="1021.72 1228.78 933.25 1228.78 977.48 1273.02 1021.72 1228.78"/>
      <polygon class="st2" points="1093.39 1273.02 1004.93 1273.02 1049.16 1228.78 1093.39 1273.02"/>
      <polygon class="st2" points="1165.07 1228.78 1076.61 1228.78 1120.84 1273.02 1165.07 1228.78"/>
      <polygon class="st2" points="1236.75 1273.02 1148.29 1273.02 1192.52 1228.78 1236.75 1273.02"/>
      <polygon class="st2" points="1308.43 1228.78 1219.97 1228.78 1264.2 1273.02 1308.43 1228.78"/>
      <polygon class="st2" points="1380.11 1273.02 1291.65 1273.02 1335.88 1228.78 1380.11 1273.02"/>
      <polygon class="st2" points="1451.79 1228.78 1363.33 1228.78 1407.56 1273.02 1451.79 1228.78"/>
      <polygon class="st2" points="1523.47 1273.02 1435.01 1273.02 1479.24 1228.78 1523.47 1273.02"/>
      <polygon class="st2" points="1595.15 1228.78 1506.69 1228.78 1550.92 1273.02 1595.15 1228.78"/>
      <polygon class="st2" points="1666.83 1273.02 1578.37 1273.02 1622.6 1228.78 1666.83 1273.02"/>
      <polygon class="st2" points="1738.51 1228.78 1650.05 1228.78 1694.28 1273.02 1738.51 1228.78"/>
      <polygon class="st2" points="1810.19 1273.02 1721.73 1273.02 1765.96 1228.78 1810.19 1273.02"/>
      <polygon class="st2" points="1881.87 1228.78 1793.41 1228.78 1837.64 1273.02 1881.87 1228.78"/>
      <polygon class="st2" points="1953.55 1273.02 1865.08 1273.02 1909.32 1228.78 1953.55 1273.02"/>
      <polygon class="st2" points="2025.23 1228.78 1936.76 1228.78 1981 1273.02 2025.23 1228.78"/>
    </g>
    <g>
      <polygon class="st2" points="89.88 1723.14 1.42 1723.14 45.65 1767.37 89.88 1723.14"/>
      <polygon class="st2" points="161.56 1767.37 73.1 1767.37 117.33 1723.14 161.56 1767.37"/>
      <polygon class="st2" points="233.24 1723.14 144.78 1723.14 189.01 1767.37 233.24 1723.14"/>
      <polygon class="st2" points="304.92 1767.37 216.46 1767.37 260.69 1723.14 304.92 1767.37"/>
      <polygon class="st2" points="376.6 1723.14 288.14 1723.14 332.37 1767.37 376.6 1723.14"/>
      <polygon class="st2" points="448.28 1767.37 359.82 1767.37 404.05 1723.14 448.28 1767.37"/>
      <polygon class="st2" points="519.96 1723.14 431.5 1723.14 475.73 1767.37 519.96 1723.14"/>
      <polygon class="st2" points="591.64 1767.37 503.18 1767.37 547.41 1723.14 591.64 1767.37"/>
      <polygon class="st2" points="663.32 1723.14 574.86 1723.14 619.09 1767.37 663.32 1723.14"/>
      <polygon class="st2" points="735 1767.37 646.54 1767.37 690.77 1723.14 735 1767.37"/>
      <polygon class="st2" points="806.68 1723.14 718.21 1723.14 762.45 1767.37 806.68 1723.14"/>
      <polygon class="st2" points="878.36 1767.37 789.89 1767.37 834.13 1723.14 878.36 1767.37"/>
      <polygon class="st2" points="950.04 1723.14 861.57 1723.14 905.8 1767.37 950.04 1723.14"/>
      <polygon class="st2" points="1021.72 1767.37 933.25 1767.37 977.48 1723.14 1021.72 1767.37"/>
      <polygon class="st2" points="1093.39 1723.14 1004.93 1723.14 1049.16 1767.37 1093.39 1723.14"/>
      <polygon class="st2" points="1165.07 1767.37 1076.61 1767.37 1120.84 1723.14 1165.07 1767.37"/>
      <polygon class="st2" points="1236.75 1723.14 1148.29 1723.14 1192.52 1767.37 1236.75 1723.14"/>
      <polygon class="st2" points="1308.43 1767.37 1219.97 1767.37 1264.2 1723.14 1308.43 1767.37"/>
      <polygon class="st2" points="1380.11 1723.14 1291.65 1723.14 1335.88 1767.37 1380.11 1723.14"/>
      <polygon class="st2" points="1451.79 1767.37 1363.33 1767.37 1407.56 1723.14 1451.79 1767.37"/>
      <polygon class="st2" points="1523.47 1723.14 1435.01 1723.14 1479.24 1767.37 1523.47 1723.14"/>
      <polygon class="st2" points="1595.15 1767.37 1506.69 1767.37 1550.92 1723.14 1595.15 1767.37"/>
      <polygon class="st2" points="1666.83 1723.14 1578.37 1723.14 1622.6 1767.37 1666.83 1723.14"/>
      <polygon class="st2" points="1738.51 1767.37 1650.05 1767.37 1694.28 1723.14 1738.51 1767.37"/>
      <polygon class="st2" points="1810.19 1723.14 1721.73 1723.14 1765.96 1767.37 1810.19 1723.14"/>
      <polygon class="st2" points="1881.87 1767.37 1793.41 1767.37 1837.64 1723.14 1881.87 1767.37"/>
      <polygon class="st2" points="1953.55 1723.14 1865.08 1723.14 1909.32 1767.37 1953.55 1723.14"/>
      <polygon class="st2" points="2025.23 1767.37 1936.76 1767.37 1981 1723.14 2025.23 1767.37"/>
    </g>
    <g>
      <g>
        <path class="st1" d="M1912.3,1385.15l-102.88,102.88-148.05-148.05-147.41,147.43-102.26-102.26-102.88,102.9-148.07-148.07-147.41,147.43-102.26-102.26-102.88,102.88-148.05-148.05-147.41,147.43-102.26-102.26-102.88,102.9-148.07-148.07L1.43,1498.08l158.09,158.09,148.07-148.05,102.88,102.88,102.26-102.24,147.41,147.41,148.05-148.05,102.88,102.88,102.26-102.24,147.41,147.41,148.07-148.05,102.88,102.88,102.26-102.24,147.41,147.41,148.05-148.05,102.88,102.88,112.92-112.92-112.92-112.92ZM159.52,1627.54l-129.46-129.46,129.46-129.49,129.49,129.49-129.49,129.46ZM410.47,1582.37l-84.32-84.29,84.32-84.32,84.29,84.32-84.29,84.29ZM660.14,1627.54l-129.49-129.46,129.49-129.49,129.46,129.49-129.46,129.46ZM911.07,1582.37l-84.29-84.29,84.29-84.32,84.32,84.32-84.32,84.29ZM1160.74,1627.54l-129.46-129.46,129.46-129.49,129.49,129.49-129.49,129.46ZM1411.7,1582.37l-84.32-84.29,84.32-84.32,84.29,84.32-84.29,84.29ZM1661.37,1627.54l-129.49-129.46,129.49-129.49,129.46,129.49-129.46,129.46ZM1828,1498.08l84.29-84.32,84.32,84.32-84.32,84.29-84.29-84.29Z"/>
        <path class="st3" d="M159.52,1397.22l-100.86,100.86,100.86,100.86,100.86-100.86-100.86-100.86ZM87.29,1498.08l72.23-72.23,72.25,72.23-72.25,72.23-72.23-72.23Z"/>
        <path class="st3" d="M660.43,1397.22l-100.83,100.86,100.86,100.86,100.83-100.86-100.86-100.86ZM588.2,1498.08l72.23-72.23,72.25,72.23-72.23,72.23-72.25-72.23Z"/>
        <path class="st3" d="M1161.36,1397.22l-100.86,100.86,100.86,100.86,100.86-100.86-100.86-100.86ZM1089.13,1498.08l72.23-72.23,72.23,72.23-72.23,72.23-72.23-72.23Z"/>
        <path class="st3" d="M1662.27,1397.22l-100.86,100.86,100.86,100.86,100.86-100.86-100.86-100.86ZM1590.04,1498.08l72.23-72.23,72.23,72.23-72.23,72.23-72.23-72.23Z"/>
      </g>
      <path class="st0" d="M159.51,1454.48l-43.6,43.6,43.6,43.6,43.62-43.6-43.62-43.6ZM144.52,1498.08l14.99-14.99,14.99,14.99-14.99,14.99-14.99-14.99Z"/>
      <path class="st0" d="M660.42,1454.48l-43.6,43.6,43.6,43.6,43.62-43.6-43.62-43.6ZM645.43,1498.08l14.99-14.99,14.99,14.99-14.99,14.99-14.99-14.99Z"/>
      <path class="st0" d="M1161.33,1454.48l-43.6,43.6,43.6,43.6,43.62-43.6-43.62-43.6ZM1146.34,1498.08l14.99-14.99,14.99,14.99-14.99,14.99-14.99-14.99Z"/>
      <path class="st0" d="M1662.24,1454.48l-43.6,43.6,43.6,43.6,43.62-43.6-43.62-43.6ZM1647.25,1498.08l14.99-14.99,14.99,14.99-14.99,14.99-14.99-14.99Z"/>
      <path class="st0" d="M410.47,1442.39l-55.69,55.69,55.69,55.66,55.69-55.66-55.69-55.69ZM383.41,1498.08l27.06-27.08,27.06,27.08-27.06,27.06-27.06-27.06Z"/>
      <path class="st0" d="M911.38,1442.39l-55.69,55.69,55.69,55.66,55.69-55.66-55.69-55.69ZM884.32,1498.08l27.06-27.08,27.06,27.08-27.06,27.06-27.06-27.06Z"/>
      <path class="st0" d="M1412.3,1442.39l-55.69,55.69,55.69,55.66,55.69-55.66-55.69-55.69ZM1385.24,1498.08l27.06-27.08,27.06,27.08-27.06,27.06-27.06-27.06Z"/>
      <path class="st0" d="M1913.21,1442.39l-55.69,55.69,55.69,55.66,55.69-55.66-55.69-55.69ZM1886.15,1498.08l27.06-27.08,27.06,27.08-27.06,27.06-27.06-27.06Z"/>
    </g>
  </g>
  <g>
    <g>
      <polygon class="st3" points="89.88 645.86 1.42 645.86 45.65 601.63 89.88 645.86"/>
      <polygon class="st3" points="161.56 601.63 73.1 601.63 117.33 645.86 161.56 601.63"/>
      <polygon class="st3" points="233.24 645.86 144.78 645.86 189.01 601.63 233.24 645.86"/>
      <polygon class="st3" points="304.92 601.63 216.46 601.63 260.69 645.86 304.92 601.63"/>
      <polygon class="st3" points="376.6 645.86 288.14 645.86 332.37 601.63 376.6 645.86"/>
      <polygon class="st3" points="448.28 601.63 359.82 601.63 404.05 645.86 448.28 601.63"/>
      <polygon class="st3" points="519.96 645.86 431.5 645.86 475.73 601.63 519.96 645.86"/>
      <polygon class="st3" points="591.64 601.63 503.18 601.63 547.41 645.86 591.64 601.63"/>
      <polygon class="st3" points="663.32 645.86 574.86 645.86 619.09 601.63 663.32 645.86"/>
      <polygon class="st3" points="735 601.63 646.54 601.63 690.77 645.86 735 601.63"/>
      <polygon class="st3" points="806.68 645.86 718.21 645.86 762.45 601.63 806.68 645.86"/>
      <polygon class="st3" points="878.36 601.63 789.89 601.63 834.13 645.86 878.36 601.63"/>
      <polygon class="st3" points="950.04 645.86 861.57 645.86 905.8 601.63 950.04 645.86"/>
      <polygon class="st3" points="1021.72 601.63 933.25 601.63 977.48 645.86 1021.72 601.63"/>
      <polygon class="st3" points="1093.39 645.86 1004.93 645.86 1049.16 601.63 1093.39 645.86"/>
      <polygon class="st3" points="1165.07 601.63 1076.61 601.63 1120.84 645.86 1165.07 601.63"/>
      <polygon class="st3" points="1236.75 645.86 1148.29 645.86 1192.52 601.63 1236.75 645.86"/>
      <polygon class="st3" points="1308.43 601.63 1219.97 601.63 1264.2 645.86 1308.43 601.63"/>
      <polygon class="st3" points="1380.11 645.86 1291.65 645.86 1335.88 601.63 1380.11 645.86"/>
      <polygon class="st3" points="1451.79 601.63 1363.33 601.63 1407.56 645.86 1451.79 601.63"/>
      <polygon class="st3" points="1523.47 645.86 1435.01 645.86 1479.24 601.63 1523.47 645.86"/>
      <polygon class="st3" points="1595.15 601.63 1506.69 601.63 1550.92 645.86 1595.15 601.63"/>
      <polygon class="st3" points="1666.83 645.86 1578.37 645.86 1622.6 601.63 1666.83 645.86"/>
      <polygon class="st3" points="1738.51 601.63 1650.05 601.63 1694.28 645.86 1738.51 601.63"/>
      <polygon class="st3" points="1810.19 645.86 1721.73 645.86 1765.96 601.63 1810.19 645.86"/>
      <polygon class="st3" points="1881.87 601.63 1793.41 601.63 1837.64 645.86 1881.87 601.63"/>
      <polygon class="st3" points="1953.55 645.86 1865.08 645.86 1909.32 601.63 1953.55 645.86"/>
      <polygon class="st3" points="2025.23 601.63 1936.76 601.63 1981 645.86 2025.23 601.63"/>
    </g>
    <g>
      <polygon class="st3" points="89.88 1095.98 1.42 1095.98 45.65 1140.21 89.88 1095.98"/>
      <polygon class="st3" points="161.56 1140.21 73.1 1140.21 117.33 1095.98 161.56 1140.21"/>
      <polygon class="st3" points="233.24 1095.98 144.78 1095.98 189.01 1140.21 233.24 1095.98"/>
      <polygon class="st3" points="304.92 1140.21 216.46 1140.21 260.69 1095.98 304.92 1140.21"/>
      <polygon class="st3" points="376.6 1095.98 288.14 1095.98 332.37 1140.21 376.6 1095.98"/>
      <polygon class="st3" points="448.28 1140.21 359.82 1140.21 404.05 1095.98 448.28 1140.21"/>
      <polygon class="st3" points="519.96 1095.98 431.5 1095.98 475.73 1140.21 519.96 1095.98"/>
      <polygon class="st3" points="591.64 1140.21 503.18 1140.21 547.41 1095.98 591.64 1140.21"/>
      <polygon class="st3" points="663.32 1095.98 574.86 1095.98 619.09 1140.21 663.32 1095.98"/>
      <polygon class="st3" points="735 1140.21 646.54 1140.21 690.77 1095.98 735 1140.21"/>
      <polygon class="st3" points="806.68 1095.98 718.21 1095.98 762.45 1140.21 806.68 1095.98"/>
      <polygon class="st3" points="878.36 1140.21 789.89 1140.21 834.13 1095.98 878.36 1140.21"/>
      <polygon class="st3" points="950.04 1095.98 861.57 1095.98 905.8 1140.21 950.04 1095.98"/>
      <polygon class="st3" points="1021.72 1140.21 933.25 1140.21 977.48 1095.98 1021.72 1140.21"/>
      <polygon class="st3" points="1093.39 1095.98 1004.93 1095.98 1049.16 1140.21 1093.39 1095.98"/>
      <polygon class="st3" points="1165.07 1140.21 1076.61 1140.21 1120.84 1095.98 1165.07 1140.21"/>
      <polygon class="st3" points="1236.75 1095.98 1148.29 1095.98 1192.52 1140.21 1236.75 1095.98"/>
      <polygon class="st3" points="1308.43 1140.21 1219.97 1140.21 1264.2 1095.98 1308.43 1140.21"/>
      <polygon class="st3" points="1380.11 1095.98 1291.65 1095.98 1335.88 1140.21 1380.11 1095.98"/>
      <polygon class="st3" points="1451.79 1140.21 1363.33 1140.21 1407.56 1095.98 1451.79 1140.21"/>
      <polygon class="st3" points="1523.47 1095.98 1435.01 1095.98 1479.24 1140.21 1523.47 1095.98"/>
      <polygon class="st3" points="1595.15 1140.21 1506.69 1140.21 1550.92 1095.98 1595.15 1140.21"/>
      <polygon class="st3" points="1666.83 1095.98 1578.37 1095.98 1622.6 1140.21 1666.83 1095.98"/>
      <polygon class="st3" points="1738.51 1140.21 1650.05 1140.21 1694.28 1095.98 1738.51 1140.21"/>
      <polygon class="st3" points="1810.19 1095.98 1721.73 1095.98 1765.96 1140.21 1810.19 1095.98"/>
      <polygon class="st3" points="1881.87 1140.21 1793.41 1140.21 1837.64 1095.98 1881.87 1140.21"/>
      <polygon class="st3" points="1953.55 1095.98 1865.08 1095.98 1909.32 1140.21 1953.55 1095.98"/>
      <polygon class="st3" points="2025.23 1140.21 1936.76 1140.21 1981 1095.98 2025.23 1140.21"/>
    </g>
    <g>
      <g>
        <path class="st2" d="M1912.3,758l-102.88,102.88-148.05-148.05-147.41,147.43-102.26-102.26-102.88,102.9-148.07-148.07-147.41,147.43-102.26-102.26-102.88,102.88-148.05-148.05-147.41,147.43-102.26-102.26-102.88,102.9-148.07-148.07L1.43,870.92l158.09,158.09,148.07-148.05,102.88,102.88,102.26-102.24,147.41,147.41,148.05-148.05,102.88,102.88,102.26-102.24,147.41,147.41,148.07-148.05,102.88,102.88,102.26-102.24,147.41,147.41,148.05-148.05,102.88,102.88,112.92-112.92-112.92-112.92ZM159.52,1000.39L30.06,870.92l129.46-129.49,129.49,129.49-129.49,129.46ZM410.47,955.22l-84.32-84.29,84.32-84.32,84.29,84.32-84.29,84.29ZM660.14,1000.39l-129.49-129.46,129.49-129.49,129.46,129.49-129.46,129.46ZM911.07,955.22l-84.29-84.29,84.29-84.32,84.32,84.32-84.32,84.29ZM1160.74,1000.39l-129.46-129.46,129.46-129.49,129.49,129.49-129.49,129.46ZM1411.7,955.22l-84.32-84.29,84.32-84.32,84.29,84.32-84.29,84.29ZM1661.37,1000.39l-129.49-129.46,129.49-129.49,129.46,129.49-129.46,129.46ZM1828,870.92l84.29-84.32,84.32,84.32-84.32,84.29-84.29-84.29Z"/>
        <path class="st0" d="M159.52,770.06l-100.86,100.86,100.86,100.86,100.86-100.86-100.86-100.86ZM87.29,870.92l72.23-72.23,72.25,72.23-72.25,72.23-72.23-72.23Z"/>
        <path class="st0" d="M660.43,770.06l-100.83,100.86,100.86,100.86,100.83-100.86-100.86-100.86ZM588.2,870.92l72.23-72.23,72.25,72.23-72.23,72.23-72.25-72.23Z"/>
        <path class="st0" d="M1161.36,770.06l-100.86,100.86,100.86,100.86,100.86-100.86-100.86-100.86ZM1089.13,870.92l72.23-72.23,72.23,72.23-72.23,72.23-72.23-72.23Z"/>
        <path class="st0" d="M1662.27,770.06l-100.86,100.86,100.86,100.86,100.86-100.86-100.86-100.86ZM1590.04,870.92l72.23-72.23,72.23,72.23-72.23,72.23-72.23-72.23Z"/>
      </g>
      <path class="st1" d="M159.51,827.32l-43.6,43.6,43.6,43.6,43.62-43.6-43.62-43.6ZM144.52,870.92l14.99-14.99,14.99,14.99-14.99,14.99-14.99-14.99Z"/>
      <path class="st1" d="M660.42,827.32l-43.6,43.6,43.6,43.6,43.62-43.6-43.62-43.6ZM645.43,870.92l14.99-14.99,14.99,14.99-14.99,14.99-14.99-14.99Z"/>
      <path class="st1" d="M1161.33,827.32l-43.6,43.6,43.6,43.6,43.62-43.6-43.62-43.6ZM1146.34,870.92l14.99-14.99,14.99,14.99-14.99,14.99-14.99-14.99Z"/>
      <path class="st1" d="M1662.24,827.32l-43.6,43.6,43.6,43.6,43.62-43.6-43.62-43.6ZM1647.25,870.92l14.99-14.99,14.99,14.99-14.99,14.99-14.99-14.99Z"/>
      <path class="st1" d="M410.47,815.23l-55.69,55.69,55.69,55.66,55.69-55.66-55.69-55.69ZM383.41,870.92l27.06-27.08,27.06,27.08-27.06,27.06-27.06-27.06Z"/>
      <path class="st1" d="M911.38,815.23l-55.69,55.69,55.69,55.66,55.69-55.66-55.69-55.69ZM884.32,870.92l27.06-27.08,27.06,27.08-27.06,27.06-27.06-27.06Z"/>
      <path class="st1" d="M1412.3,815.23l-55.69,55.69,55.69,55.66,55.69-55.66-55.69-55.69ZM1385.24,870.92l27.06-27.08,27.06,27.08-27.06,27.06-27.06-27.06Z"/>
      <path class="st1" d="M1913.21,815.23l-55.69,55.69,55.69,55.66,55.69-55.66-55.69-55.69ZM1886.15,870.92l27.06-27.08,27.06,27.08-27.06,27.06-27.06-27.06Z"/>
    </g>
  </g>
</svg>